# xmcd CD database file
#
# Track frame offsets:
#	182
#	35022
#	60100
#	87612
#	112522
#	139702
#	168570
#	193777
#	207125
#	228992
#
# Disc length: 3484 seconds
#
# Revision: 0
# Processed by: cddbd v1.5PL3 Copyright (c) Steve Scherf et al.
# Submitted via: CDex 1.51
#
DISCID=7e0d9a0a
DTITLE=Tissendier, Claude Saxomania and Guy Lafitte - Sax Connection
DYEAR=1900
DGENRE=Jazz
TTITLE0=Tickle Toe
TTITLE1=Stardust
TTITLE2=A foggy day
TTITLE3=Cry me a river
TTITLE4=Cherokee
TTITLE5=These foolish things
TTITLE6=Taking a chance on love
TTITLE7=Lady of the lavender mist
TTITLE8=If I should lose you
TTITLE9=Disorder at the border
EXTD=
EXTT0=
EXTT1=
EXTT2=
EXTT3=
EXTT4=
EXTT5=
EXTT6=
EXTT7=
EXTT8=
EXTT9=
PLAYORDER=
